<svg width="16" height="17" viewBox="0 0 16 17" fill="none" xmlns="http://www.w3.org/2000/svg">
<path d="M14.4201 11.7192H5.11537L5.58256 10.7676L13.3451 10.7536C13.6076 10.7536 13.8326 10.5661 13.8794 10.3067L14.9544 4.28951C14.9826 4.1317 14.9404 3.9692 14.8372 3.84576C14.7863 3.78501 14.7227 3.73608 14.6509 3.70235C14.5792 3.66863 14.5009 3.65092 14.4216 3.65045L4.54662 3.61764L4.46224 3.22076C4.40912 2.96764 4.18099 2.78326 3.92162 2.78326H1.50756C1.36127 2.78326 1.22098 2.84137 1.11754 2.94481C1.0141 3.04825 0.955994 3.18854 0.955994 3.33483C0.955994 3.48111 1.0141 3.6214 1.11754 3.72484C1.22098 3.82828 1.36127 3.88639 1.50756 3.88639H3.47474L3.84349 5.63951L4.75131 10.0348L3.58256 11.9426C3.52186 12.0246 3.4853 12.1218 3.47702 12.2234C3.46874 12.3251 3.48906 12.427 3.53568 12.5176C3.62943 12.7036 3.81849 12.8208 4.02787 12.8208H5.00912C4.79993 13.0986 4.68694 13.437 4.68724 13.7848C4.68724 14.6692 5.40599 15.388 6.29037 15.388C7.17474 15.388 7.89349 14.6692 7.89349 13.7848C7.89349 13.4364 7.77787 13.0973 7.57162 12.8208H10.0888C9.87962 13.0986 9.76662 13.437 9.76693 13.7848C9.76693 14.6692 10.4857 15.388 11.3701 15.388C12.2544 15.388 12.9732 14.6692 12.9732 13.7848C12.9732 13.4364 12.8576 13.0973 12.6513 12.8208H14.4216C14.7247 12.8208 14.9732 12.5739 14.9732 12.2692C14.9723 12.1231 14.9136 11.9832 14.81 11.8802C14.7064 11.7772 14.5662 11.7193 14.4201 11.7192V11.7192ZM4.77631 4.70514L13.7732 4.73483L12.8919 9.6692L5.82474 9.6817L4.77631 4.70514ZM6.29037 14.2786C6.01849 14.2786 5.79662 14.0567 5.79662 13.7848C5.79662 13.513 6.01849 13.2911 6.29037 13.2911C6.56224 13.2911 6.78412 13.513 6.78412 13.7848C6.78412 13.9158 6.7321 14.0414 6.6395 14.134C6.54691 14.2266 6.42132 14.2786 6.29037 14.2786V14.2786ZM11.3701 14.2786C11.0982 14.2786 10.8763 14.0567 10.8763 13.7848C10.8763 13.513 11.0982 13.2911 11.3701 13.2911C11.6419 13.2911 11.8638 13.513 11.8638 13.7848C11.8638 13.9158 11.8118 14.0414 11.7192 14.134C11.6266 14.2266 11.501 14.2786 11.3701 14.2786V14.2786Z" fill="white"/>
</svg>
