<svg width="101" height="37" viewBox="0 0 101 37" fill="none" xmlns="http://www.w3.org/2000/svg">
<path d="M12.2606 6.56271H10.1378V7.6323H12.2606V6.56271Z" fill="black"/>
<path d="M12.2606 8.70187H10.1378V9.77146H12.2606V8.70187Z" fill="black"/>
<path d="M12.2606 10.841H10.1378V11.9106H12.2606V10.841Z" fill="black"/>
<path d="M19.6905 7.0975H18.6291C18.6288 7.38107 18.5168 7.65293 18.3179 7.85344C18.1189 8.05396 17.8491 8.16675 17.5677 8.16709V9.23667C18.1305 9.23603 18.6701 9.01045 19.0681 8.60942C19.466 8.20839 19.6899 7.66465 19.6905 7.0975Z" fill="black"/>
<path d="M22.3441 9.77146V8.70188C22.0627 8.70154 21.7929 8.58875 21.5939 8.38823C21.3949 8.18772 21.283 7.91586 21.2827 7.63229H20.2213C20.2219 8.19944 20.4457 8.74318 20.8437 9.14421C21.2417 9.54524 21.7813 9.77082 22.3441 9.77146Z" fill="black"/>
<path d="M27.9159 33.0505C27.02 33.2146 26.1061 33.2557 25.1992 33.1728L15.9715 32.3274C15.8232 32.3138 15.6858 32.2431 15.5879 32.13C15.49 32.0169 15.4391 31.8701 15.4458 31.7202C15.4525 31.5703 15.5163 31.4287 15.6239 31.325C15.7316 31.2212 15.8747 31.1633 16.0237 31.1632H23.1401C23.492 31.1626 23.8293 31.0214 24.0781 30.7705C24.3268 30.5196 24.4666 30.1796 24.4668 29.8249V29.8124C24.4662 29.5314 24.3758 29.2581 24.2088 29.033L22.9937 27.401C22.9167 27.2972 22.875 27.1711 22.8747 27.0415V26.9497C22.8747 26.8311 22.9096 26.7152 22.975 26.6166C23.0404 26.518 23.1333 26.4411 23.242 26.3957C23.3508 26.3503 23.4704 26.3385 23.5859 26.3616C23.7013 26.3847 23.8073 26.4418 23.8905 26.5257L26.2144 28.8674C26.2637 28.917 26.3222 28.9564 26.3866 28.9833C26.451 29.0102 26.52 29.024 26.5897 29.024H32.4274V27.9544H26.8094L24.6412 25.7693C24.5866 25.7145 24.5283 25.6634 24.4668 25.6166V13.515C24.4668 13.3732 24.4109 13.2372 24.3114 13.1369C24.2119 13.0366 24.0769 12.9802 23.9361 12.9802H23.4054V11.3759H24.2015C24.6941 11.3759 25.1666 11.1787 25.5149 10.8276C25.8633 10.4766 26.059 10.0005 26.059 9.50409C26.059 9.00766 25.8633 8.53157 25.5149 8.18054C25.1666 7.82952 24.6941 7.63231 24.2015 7.63231H24.1466C24.4123 7.31148 24.5489 6.90191 24.5295 6.48449C24.5101 6.06708 24.336 5.67218 24.0417 5.37783C23.7473 5.08347 23.3542 4.91105 22.9398 4.89464C22.5254 4.87823 22.12 5.01902 21.8037 5.28919C21.7535 4.75947 21.5091 4.26763 21.1184 3.9097C20.7276 3.55176 20.2185 3.35343 19.6905 3.35343C19.1624 3.35343 18.6533 3.55176 18.2626 3.9097C17.8718 4.26763 17.6275 4.75947 17.5773 5.28919C17.2609 5.01902 16.8555 4.87823 16.4411 4.89464C16.0268 4.91105 15.6336 5.08347 15.3393 5.37783C15.0449 5.67218 14.8709 6.06708 14.8514 6.48449C14.832 6.90191 14.9686 7.31148 15.2343 7.63231H15.1795C14.904 7.63206 14.632 7.69389 14.3834 7.81327V5.49315C14.3834 4.64213 14.0479 3.82597 13.4508 3.22422C12.8536 2.62246 12.0437 2.28439 11.1992 2.28439C10.3546 2.28439 9.54472 2.62246 8.94756 3.22422C8.3504 3.82597 8.01492 4.64213 8.01492 5.49315V12.9802H7.48421C7.34346 12.9802 7.20847 13.0366 7.10894 13.1369C7.00942 13.2372 6.9535 13.3732 6.9535 13.515V15.8666L4.10367 18.3282H0.585022V19.3977H4.29997C4.42665 19.3977 4.54915 19.3521 4.64533 19.269L7.7213 16.6121C8.03753 16.3392 8.44017 16.1891 8.85655 16.189C8.90002 16.189 8.94251 16.202 8.97866 16.2263C9.0148 16.2507 9.04296 16.2853 9.05959 16.3257C9.07622 16.3662 9.08057 16.4107 9.07208 16.4537C9.0636 16.4967 9.04266 16.5361 9.01192 16.5671L7.10894 18.4848C7.03471 18.5596 6.98416 18.6549 6.96368 18.7586C6.9432 18.8624 6.95371 18.9699 6.99388 19.0676C7.03405 19.1653 7.10208 19.2489 7.18936 19.3076C7.27663 19.3664 7.37924 19.3977 7.48421 19.3977H13.0566C13.127 19.3977 13.1945 19.4259 13.2443 19.4761C13.294 19.5262 13.322 19.5942 13.322 19.6651C13.322 19.7361 13.294 19.8041 13.2443 19.8542C13.1945 19.9044 13.127 19.9325 13.0566 19.9325H9.07633C8.93558 19.9325 8.80059 19.9889 8.70107 20.0892C8.60154 20.1895 8.54563 20.3255 8.54563 20.4673C8.54563 20.6092 8.60154 20.7452 8.70107 20.8455C8.80059 20.9458 8.93558 21.0021 9.07633 21.0021H14.6488C14.7191 21.0021 14.7866 21.0303 14.8364 21.0804C14.8862 21.1306 14.9141 21.1986 14.9141 21.2695C14.9141 21.3404 14.8862 21.4084 14.8364 21.4586C14.7866 21.5087 14.7191 21.5369 14.6488 21.5369H9.07633C8.93558 21.5369 8.80059 21.5933 8.70107 21.6935C8.60154 21.7938 8.54563 21.9299 8.54563 22.0717C8.54563 22.2135 8.60154 22.3496 8.70107 22.4499C8.80059 22.5501 8.93558 22.6065 9.07633 22.6065H13.5873C13.6577 22.6065 13.7252 22.6347 13.775 22.6848C13.8247 22.735 13.8527 22.803 13.8527 22.8739C13.8527 22.9448 13.8247 23.0128 13.775 23.063C13.7252 23.1131 13.6577 23.1413 13.5873 23.1413H9.07633C8.93558 23.1413 8.80059 23.1976 8.70107 23.2979C8.60154 23.3982 8.54563 23.5342 8.54563 23.6761C8.54563 23.8179 8.60154 23.9539 8.70107 24.0542C8.80059 24.1545 8.93558 24.2109 9.07633 24.2109H11.6967C11.7048 24.2113 11.7126 24.2147 11.7184 24.2205C11.7242 24.2263 11.7277 24.234 11.7282 24.2422C11.7287 24.2504 11.7261 24.2585 11.7211 24.265C11.716 24.2714 11.7088 24.2758 11.7007 24.2772L8.05645 24.7362L4.44591 23.6967C4.39845 23.683 4.34933 23.6761 4.29997 23.6761H0.585022V24.7457H4.22567L6.9535 25.5311V30.6284H6.95476C6.95426 30.6986 6.96761 30.7683 6.99402 30.8333C7.02044 30.8984 7.05939 30.9575 7.10864 31.0072C7.15789 31.0569 7.21644 31.0963 7.28091 31.1231C7.34538 31.1499 7.41448 31.1635 7.48421 31.1632H14.4895C14.4002 31.4014 14.3668 31.6573 14.3918 31.9107C14.4168 32.1642 14.4997 32.4084 14.6339 32.6242C14.7681 32.8401 14.9499 33.0217 15.1653 33.155C15.3807 33.2883 15.6238 33.3696 15.8755 33.3926L25.1031 34.2382C25.4389 34.2691 25.7752 34.2845 26.112 34.2844C26.7806 34.2844 27.4479 34.2238 28.1058 34.1033L32.5224 33.294L32.3325 32.2417L27.9159 33.0505ZM13.322 10.8411C13.3221 10.6993 13.3781 10.5633 13.4776 10.4631C13.5771 10.3628 13.712 10.3064 13.8527 10.3063H14.9141C15.4769 10.3069 16.0165 10.5325 16.4145 10.9335C16.8124 11.3346 17.0363 11.8783 17.0369 12.4454C17.0368 12.5872 16.9808 12.7232 16.8813 12.8234C16.7818 12.9237 16.6469 12.9801 16.5062 12.9802H15.4448C14.882 12.9796 14.3424 12.754 13.9444 12.353C13.5465 11.952 13.3226 11.4082 13.322 10.8411ZM15.1795 8.7019H16.5062C16.6112 8.7019 16.7138 8.67054 16.8011 8.61178C16.8884 8.55301 16.9564 8.46949 16.9966 8.37176C17.0367 8.27404 17.0472 8.16651 17.0268 8.06277C17.0063 7.95903 16.9557 7.86373 16.8815 7.78894L16.0854 6.98675C16.0302 6.93107 15.9864 6.86496 15.9564 6.79221C15.9265 6.71946 15.9111 6.64148 15.9111 6.56273C15.9111 6.48398 15.9265 6.406 15.9564 6.33325C15.9864 6.2605 16.0302 6.19439 16.0854 6.13871C16.1407 6.08302 16.2063 6.03885 16.2785 6.00872C16.3507 5.97858 16.4281 5.96307 16.5062 5.96307C16.5844 5.96307 16.6618 5.97858 16.734 6.00872C16.8062 6.03885 16.8718 6.08302 16.927 6.13871L17.7231 6.94089C17.7973 7.01569 17.8919 7.06663 17.9948 7.08726C18.0978 7.1079 18.2045 7.09731 18.3014 7.05683C18.3984 7.01635 18.4813 6.9478 18.5396 6.85985C18.5979 6.7719 18.6291 6.6685 18.6291 6.56273V5.49315C18.6291 5.20947 18.7409 4.93742 18.9399 4.73684C19.139 4.53625 19.409 4.42356 19.6905 4.42356C19.972 4.42356 20.2419 4.53625 20.441 4.73684C20.6401 4.93742 20.7519 5.20947 20.7519 5.49315V6.56273C20.7519 6.6685 20.783 6.7719 20.8413 6.85985C20.8996 6.9478 20.9825 7.01635 21.0795 7.05683C21.1765 7.09731 21.2832 7.1079 21.3861 7.08726C21.4891 7.06663 21.5836 7.01569 21.6579 6.94089L22.4539 6.13871C22.5092 6.08302 22.5748 6.03885 22.647 6.00872C22.7192 5.97858 22.7966 5.96307 22.8747 5.96307C22.9529 5.96307 23.0302 5.97858 23.1024 6.00872C23.1746 6.03885 23.2402 6.08302 23.2955 6.13871C23.3508 6.19439 23.3946 6.2605 23.4245 6.33325C23.4544 6.406 23.4698 6.48398 23.4698 6.56273C23.4698 6.64148 23.4544 6.71946 23.4245 6.79221C23.3946 6.86496 23.3508 6.93107 23.2955 6.98675L22.4994 7.78894C22.4252 7.86373 22.3747 7.95903 22.3542 8.06277C22.3337 8.16651 22.3442 8.27404 22.3844 8.37176C22.4246 8.46949 22.4926 8.55301 22.5799 8.61178C22.6671 8.67054 22.7697 8.7019 22.8747 8.7019H24.2015C24.4126 8.7019 24.6151 8.78641 24.7644 8.93685C24.9137 9.08729 24.9975 9.29133 24.9975 9.50409C24.9975 9.71684 24.9137 9.92088 24.7644 10.0713C24.6151 10.2218 24.4126 10.3063 24.2015 10.3063H22.8747C22.734 10.3063 22.599 10.3626 22.4994 10.4629C22.3999 10.5632 22.344 10.6992 22.344 10.8411V11.1259C21.7248 10.5655 20.912 10.2723 20.0805 10.3094C19.249 10.3466 18.4651 10.711 17.8975 11.3245C17.6701 10.7119 17.2626 10.1839 16.7295 9.81081C16.1965 9.43776 15.5631 9.23747 14.9141 9.23669H14.4298C14.4847 9.08049 14.5863 8.94524 14.7205 8.84949C14.8547 8.75374 15.015 8.70218 15.1795 8.7019ZM22.2768 12.9802H18.1656C18.2831 12.5209 18.5488 12.1139 18.9209 11.8233C19.293 11.5327 19.7504 11.375 20.2212 11.375C20.6919 11.375 21.1493 11.5327 21.5215 11.8233C21.8936 12.1139 22.1593 12.5209 22.2768 12.9802ZM9.07633 5.49315C9.07633 4.9258 9.29999 4.3817 9.69809 3.98053C10.0962 3.57935 10.6362 3.35398 11.1992 3.35398C11.7622 3.35398 12.3021 3.57935 12.7002 3.98053C13.0983 4.3817 13.322 4.9258 13.322 5.49315V9.32867C13.0118 9.43958 12.7433 9.64448 12.5533 9.91525C12.3632 10.186 12.261 10.5094 12.2606 10.8411C12.26 11.6309 12.5498 12.393 13.0739 12.9802H9.07633V5.49315ZM10.1377 14.0498H11.1992V18.3282H10.1377V14.0498ZM8.85655 15.1194C8.57105 15.1195 8.28723 15.1636 8.01492 15.25V14.0498H9.07633V15.1398C9.00379 15.1267 8.93026 15.1198 8.85655 15.1194ZM9.07633 18.0149V18.3282H8.7654L9.07633 18.0149ZM10.1377 25.552L11.1992 25.4183V29.3372L10.1377 28.2676V25.552ZM8.08073 25.8111L9.07633 25.6857V28.2677L8.01492 29.3373V25.8152C8.03692 25.8152 8.0589 25.8138 8.08073 25.8111ZM8.7654 30.0936L9.60704 29.2455L10.4487 30.0936H8.7654ZM12.2606 25.1879C12.4222 25.09 12.5559 24.9516 12.6489 24.7863C12.7419 24.6209 12.7909 24.4342 12.7913 24.2442C12.7913 24.233 12.7913 24.2219 12.7907 24.2107H13.5873C13.7858 24.2106 13.9818 24.1657 14.1608 24.0792C14.3397 23.9927 14.4972 23.8668 14.6215 23.7109C14.7458 23.5549 14.8339 23.3729 14.8791 23.1781C14.9244 22.9834 14.9257 22.7809 14.8831 22.5855C15.2094 22.5265 15.502 22.3466 15.7033 22.0811C15.9045 21.8156 15.9998 21.4838 15.9704 21.151C15.941 20.8182 15.7891 20.5086 15.5445 20.2831C15.2998 20.0576 14.9803 19.9325 14.6488 19.9325H14.3569C14.396 19.7383 14.3919 19.5377 14.3447 19.3452C14.2976 19.1528 14.2085 18.9733 14.0841 18.8198C13.9597 18.6663 13.803 18.5425 13.6253 18.4575C13.4476 18.3725 13.2533 18.3283 13.0566 18.3282H12.2606V14.0498H23.4054V25.2821C22.9778 25.2994 22.5733 25.4825 22.2766 25.7933C21.9799 26.1041 21.8139 26.5185 21.8133 26.9497V27.0415C21.8141 27.4026 21.9304 27.7538 22.145 28.0431L23.36 29.6748C23.3895 29.7146 23.4055 29.7628 23.4056 29.8124V29.8249C23.4057 29.896 23.3778 29.9642 23.328 30.0146C23.2782 30.065 23.2106 30.0934 23.1401 30.0936H12.2606V25.1879Z" fill="black"/>
<path d="M44.9774 14.2844V3.62033H47.9876C48.9153 3.62033 49.7357 3.82541 50.4485 4.23557C51.1614 4.64572 51.7108 5.22922 52.0965 5.98605C52.4871 6.74289 52.6849 7.61203 52.6898 8.59348V9.27463C52.6898 10.2805 52.4944 11.1618 52.1038 11.9187C51.7181 12.6755 51.1639 13.2566 50.4412 13.6618C49.7234 14.0671 48.886 14.2746 47.929 14.2844H44.9774ZM46.3836 4.77756V13.1345H47.8631C48.9471 13.1345 49.7894 12.7976 50.39 12.1237C50.9954 11.4499 51.2982 10.4904 51.2982 9.24533V8.62277C51.2982 7.41183 51.0125 6.47189 50.4412 5.80295C49.8748 5.12912 49.0692 4.78732 48.0242 4.77756H46.3836ZM57.8973 14.4309C56.8231 14.4309 55.949 14.0793 55.2752 13.3762C54.6014 12.6682 54.2645 11.7234 54.2645 10.5417V10.2927C54.2645 9.50656 54.4134 8.80588 54.7112 8.19064C55.014 7.57053 55.4339 7.08713 55.971 6.74045C56.513 6.38889 57.0989 6.2131 57.7288 6.2131C58.7591 6.2131 59.5599 6.55246 60.1312 7.23117C60.7025 7.90988 60.9881 8.88156 60.9881 10.1462V10.7102H55.6194C55.639 11.4914 55.866 12.1237 56.3006 12.6071C56.7401 13.0857 57.2967 13.3249 57.9705 13.3249C58.449 13.3249 58.8543 13.2273 59.1863 13.032C59.5184 12.8366 59.8089 12.5779 60.0579 12.2556L60.8856 12.9001C60.2215 13.9206 59.2254 14.4309 57.8973 14.4309ZM57.7288 7.32639C57.1819 7.32639 56.723 7.52658 56.3519 7.92697C55.9808 8.32248 55.7513 8.87912 55.6634 9.59689H59.6331V9.49435C59.5941 8.80588 59.4085 8.27365 59.0765 7.89767C58.7444 7.51682 58.2952 7.32639 57.7288 7.32639ZM64.035 14.2844H62.68V3.03439H64.035V14.2844ZM67.6824 14.2844H66.3275V6.35959H67.6824V14.2844ZM66.2176 4.25754C66.2176 4.03781 66.2835 3.85226 66.4153 3.7009C66.5521 3.54953 66.7523 3.47385 67.0159 3.47385C67.2796 3.47385 67.4798 3.54953 67.6165 3.7009C67.7532 3.85226 67.8216 4.03781 67.8216 4.25754C67.8216 4.47726 67.7532 4.66037 67.6165 4.80685C67.4798 4.95334 67.2796 5.02658 67.0159 5.02658C66.7523 5.02658 66.5521 4.95334 66.4153 4.80685C66.2835 4.66037 66.2176 4.47726 66.2176 4.25754ZM72.4725 12.446L74.4354 6.35959H75.8196L72.9778 14.2844H71.9451L69.074 6.35959H70.4583L72.4725 12.446ZM80.3094 14.4309C79.2352 14.4309 78.3611 14.0793 77.6873 13.3762C77.0135 12.6682 76.6766 11.7234 76.6766 10.5417V10.2927C76.6766 9.50656 76.8255 8.80588 77.1234 8.19064C77.4261 7.57053 77.846 7.08713 78.3831 6.74045C78.9251 6.38889 79.511 6.2131 80.1409 6.2131C81.1712 6.2131 81.972 6.55246 82.5433 7.23117C83.1146 7.90988 83.4002 8.88156 83.4002 10.1462V10.7102H78.0316C78.0511 11.4914 78.2781 12.1237 78.7127 12.6071C79.1522 13.0857 79.7088 13.3249 80.3826 13.3249C80.8611 13.3249 81.2664 13.2273 81.5984 13.032C81.9305 12.8366 82.221 12.5779 82.47 12.2556L83.2977 12.9001C82.6336 13.9206 81.6375 14.4309 80.3094 14.4309ZM80.1409 7.32639C79.5941 7.32639 79.1351 7.52658 78.764 7.92697C78.3929 8.32248 78.1634 8.87912 78.0755 9.59689H82.0452V9.49435C82.0062 8.80588 81.8206 8.27365 81.4886 7.89767C81.1566 7.51682 80.7073 7.32639 80.1409 7.32639ZM88.8055 7.57541C88.6004 7.54123 88.3782 7.52414 88.139 7.52414C87.2503 7.52414 86.6473 7.90256 86.3299 8.65939V14.2844H84.9749V6.35959H86.2933L86.3152 7.27512C86.7596 6.56711 87.3895 6.2131 88.2049 6.2131C88.4686 6.2131 88.6688 6.24728 88.8055 6.31564V7.57541ZM92.7825 12.2995L94.6282 6.35959H96.0784L92.8924 15.5075C92.3992 16.8259 91.6155 17.4851 90.5413 17.4851L90.285 17.4631L89.7796 17.3679V16.2693L90.1458 16.2986C90.6048 16.2986 90.9612 16.2058 91.2151 16.0202C91.4739 15.8347 91.6863 15.4953 91.8524 15.0022L92.1526 14.1965L89.3255 6.35959H90.805L92.7825 12.2995ZM50.8587 27.5749H46.3836V32.2844H44.9774V21.6203H51.5838V22.7776H46.3836V26.425H50.8587V27.5749ZM52.5359 28.2487C52.5359 27.4724 52.6873 26.7741 52.9901 26.154C53.2977 25.5339 53.7225 25.0554 54.2645 24.7185C54.8113 24.3816 55.4339 24.2131 56.1321 24.2131C57.2112 24.2131 58.0828 24.5866 58.7469 25.3337C59.4158 26.0808 59.7503 27.0744 59.7503 28.3147V28.4099C59.7503 29.1814 59.6014 29.8747 59.3035 30.49C59.0106 31.1003 58.5882 31.5764 58.0364 31.9182C57.4896 32.26 56.8597 32.4309 56.1468 32.4309C55.0726 32.4309 54.201 32.0573 53.532 31.3103C52.868 30.5632 52.5359 29.5744 52.5359 28.344V28.2487ZM53.8983 28.4099C53.8983 29.2888 54.1009 29.9944 54.5062 30.5266C54.9163 31.0588 55.4632 31.3249 56.1468 31.3249C56.8353 31.3249 57.3821 31.0564 57.7874 30.5193C58.1927 29.9773 58.3953 29.2204 58.3953 28.2487C58.3953 27.3796 58.1878 26.6765 57.7728 26.1394C57.3626 25.5974 56.8157 25.3264 56.1321 25.3264C55.4632 25.3264 54.9236 25.5925 54.5135 26.1247C54.1033 26.657 53.8983 27.4187 53.8983 28.4099ZM61.0906 28.2487C61.0906 27.4724 61.242 26.7741 61.5447 26.154C61.8524 25.5339 62.2772 25.0554 62.8192 24.7185C63.366 24.3816 63.9886 24.2131 64.6868 24.2131C65.7659 24.2131 66.6375 24.5866 67.3016 25.3337C67.9705 26.0808 68.305 27.0744 68.305 28.3147V28.4099C68.305 29.1814 68.1561 29.8747 67.8582 30.49C67.5652 31.1003 67.1429 31.5764 66.5911 31.9182C66.0443 32.26 65.4144 32.4309 64.7015 32.4309C63.6273 32.4309 62.7557 32.0573 62.0867 31.3103C61.4227 30.5632 61.0906 29.5744 61.0906 28.344V28.2487ZM62.4529 28.4099C62.4529 29.2888 62.6556 29.9944 63.0609 30.5266C63.471 31.0588 64.0179 31.3249 64.7015 31.3249C65.39 31.3249 65.9368 31.0564 66.3421 30.5193C66.7474 29.9773 66.95 29.2204 66.95 28.2487C66.95 27.3796 66.7425 26.6765 66.3275 26.1394C65.9173 25.5974 65.3704 25.3264 64.6868 25.3264C64.0179 25.3264 63.4783 25.5925 63.0682 26.1247C62.658 26.657 62.4529 27.4187 62.4529 28.4099ZM69.6746 28.2561C69.6746 27.0403 69.9627 26.0637 70.5389 25.3264C71.1151 24.5842 71.8694 24.2131 72.8021 24.2131C73.7298 24.2131 74.4647 24.5305 75.0067 25.1653V21.0344H76.3616V32.2844H75.1165L75.0506 31.4348C74.5086 32.0988 73.7542 32.4309 72.7874 32.4309C71.8694 32.4309 71.1199 32.0549 70.5389 31.3029C69.9627 30.551 69.6746 29.5695 69.6746 28.3586V28.2561ZM71.0296 28.4099C71.0296 29.3083 71.2151 30.0114 71.5862 30.5193C71.9573 31.0271 72.47 31.281 73.1243 31.281C73.9837 31.281 74.6111 30.8952 75.0067 30.1237V26.4836C74.6014 25.7365 73.9788 25.363 73.139 25.363C72.4749 25.363 71.9573 25.6194 71.5862 26.132C71.2151 26.6447 71.0296 27.404 71.0296 28.4099Z" fill="black"/>
</svg>
